<svg xmlns="http://www.w3.org/2000/svg" viewBox="0 0 753.27 74"><defs><style>.cls-1{fill:#b70842;}</style></defs><title>logo-2</title><g id="Layer_2" data-name="Layer 2"><g id="Layer_1-2" data-name="Layer 1"><path class="cls-1" d="M271.44,51.87a8.27,8.27,0,0,0-3-6.74q-3-2.49-10.94-4.72t-11.62-4.87a11.52,11.52,0,0,1-5.21-9.79,11.47,11.47,0,0,1,4.84-9.56q4.84-3.68,12.37-3.67a20.45,20.45,0,0,1,9.14,2A15,15,0,0,1,273.28,20a14.49,14.49,0,0,1,2.21,7.85h-4.36a10.78,10.78,0,0,0-3.59-8.46q-3.6-3.2-9.65-3.19-5.88,0-9.36,2.62a8.22,8.22,0,0,0-3.48,6.86A7.74,7.74,0,0,0,248.18,32q3.13,2.48,10,4.36a46.68,46.68,0,0,1,10.45,3.91A14.83,14.83,0,0,1,274,45.15a11.63,11.63,0,0,1,1.76,5.56,12.4,12.4,0,0,1-4.57,10.63c-3.26,2.56-7.58,3.83-13,3.83a25,25,0,0,1-9.94-1.93,15.2,15.2,0,0,1-6.87-5.42,14,14,0,0,1-2.34-8h4.33a10.23,10.23,0,0,0,4.05,8.55q4,3.13,10.77,3.13,6,0,9.61-2.64A8.23,8.23,0,0,0,271.44,51.87Z"/><path class="cls-1" d="M289.89,12.83l19.18,45.89,19.24-45.89h6v52h-4V42.19L330.6,19,313,64.83h-5.58L288.27,19.15l1,22.89V64.83h-5v-52Z"/><path class="cls-1" d="M374.91,49.83H350.67l-5.5,15H341l19.68-52h4.18l19.68,52h-4.11Zm-22.56-3H373.2L362.77,18.51Z"/><path class="cls-1" d="M410.21,42.83H395.27v22h-5v-52h17q8.37,0,13.08,4T425,28.13a14,14,0,0,1-2.94,8.81,15,15,0,0,1-7.91,5.28l13.08,22.14v.47h-4.63Zm-14.94-3H408.8a12.56,12.56,0,0,0,8.93-3.16,10.73,10.73,0,0,0,3.38-8.2q0-5.53-3.52-8.59c-2.35-2-5.63-3.05-9.87-3.05H395.27Z"/><path class="cls-1" d="M468.27,16.83h-18v48h-4v-48h-18v-4h40Z"/><path class="cls-1" d="M527.27,22.83h-15v42h-13v-42h-15v-10h43Z"/><path class="cls-1" d="M551,46.83h-6.7v18h-13v-52h20.5q9.27,0,14.49,4.1t5.22,11.6a16.85,16.85,0,0,1-2.2,9,15.64,15.64,0,0,1-6.89,5.78l10.88,21v.54H560Zm-6.7-10H552A7,7,0,0,0,557.28,35,7.11,7.11,0,0,0,559,29.86a7.18,7.18,0,0,0-1.78-5.16A6.89,6.89,0,0,0,552,22.83h-7.75Z"/><path class="cls-1" d="M607.66,54.83H590l-3.09,10h-13l19.07-52h11.78l19.22,52H610.79Zm-14.43-9h11.18l-5.61-18Z"/><path class="cls-1" d="M668.66,46.83A17.36,17.36,0,0,1,658,62.45a27.21,27.21,0,0,1-11.27,2.22q-10.46,0-16.46-6.5t-6-18.37V37.3a29.62,29.62,0,0,1,2.71-13,19.9,19.9,0,0,1,7.82-8.62,22.53,22.53,0,0,1,11.79-3.05q9.66,0,15.52,4.85t6.66,13.38H656c-.09-3.09-.91-5.3-2.43-6.65s-3.86-2-7-2-5.51,1.13-7,3.41-2.26,5.9-2.33,10.88v3.59q0,8.1,2.13,11.58t7.34,3.48c2.94,0,5.18-.66,6.74-2s2.38-3.42,2.47-6.29Z"/><path class="cls-1" d="M704.27,42.83h-20v12h23v10h-35v-52h35v10h-23v11h20Z"/><path class="cls-1" d="M731,46.83h-6.7v18h-13v-52h20.5q9.27,0,14.49,4.1t5.22,11.6a16.85,16.85,0,0,1-2.2,9,15.64,15.64,0,0,1-6.89,5.78l10.88,21v.54H740Zm-6.7-10H732A7,7,0,0,0,737.28,35,7.11,7.11,0,0,0,739,29.86a7.18,7.18,0,0,0-1.78-5.16A6.89,6.89,0,0,0,732,22.83h-7.75Z"/><path class="cls-1" d="M197.92,70.21a6.46,6.46,0,0,0,2.18-.44,2.82,2.82,0,0,0,1.61-1.35,3.93,3.93,0,0,0,0-2.13l-.3-2.23-1.22-8.91c-.43-3-.85-5.94-1.32-8.89-.12-.73-.24-1.47-.39-2.19l-.1-.54-.12-.5a4.08,4.08,0,0,0-.34-.85,3.73,3.73,0,0,0-1.28-1.28,6.11,6.11,0,0,0-.85-.42,5.29,5.29,0,0,0-.88-.26l-.65-.1-.12-.71a52.72,52.72,0,0,0-2.24-8.9,61.71,61.71,0,0,0-3.67-8.44,86.47,86.47,0,0,0-4.71-7.92c-.87-1.27-1.76-2.53-2.69-3.75S179,8,178,6.87L176.5,5.18l2.13-.77a20.08,20.08,0,0,0,2.77-1.2,4.33,4.33,0,0,0,1-.66l0,0s0,0,0,0,0,0,0,.06a1,1,0,0,0-.07.21,1.11,1.11,0,0,0,.17.74.64.64,0,0,0,.25.26s-.08,0-.22,0a3,3,0,0,0-.53,0l-.41,0h-1.3l-3.27,0-13-.06q-6.51,0-13,.08c-4.34,0-8.68.11-13,.23-8.67.24-17.34.64-25.89,1.53-1.07.1-2.14.23-3.2.37s-2.11.29-3.16.45-2.09.37-3.13.56-2,.44-3,.75a12.58,12.58,0,0,0-1.43.46,8.61,8.61,0,0,0-1.3.55l-.59.3c-.2.1-.43.27-.64.4-.44.28-.87.58-1.3.87a53.73,53.73,0,0,0-4.93,3.93,107.66,107.66,0,0,0-9,9.15l-4.3,4.91a34.31,34.31,0,0,1-2.39,2.49l-.36.32c-.13.11-.28.22-.43.33s-.35.23-.53.34-.27.12-.41.18l-.21.07-.13,0-1,.19-.84.1c-4.4.49-8.69.85-13,1.24s-8.65.81-13,1.29-8.61,1-12.87,1.68c-2.13.34-4.25.72-6.33,1.19-.53.1-1,.25-1.54.39s-1,.28-1.51.43a13.52,13.52,0,0,0-2.73,1.27,19,19,0,0,0-4.61,4.12,32.11,32.11,0,0,0-3.5,5.29A49.93,49.93,0,0,0,8.06,55a51.06,51.06,0,0,0-1.95,6.15l-.07.3-.28,0a26.88,26.88,0,0,0-3.36.62l-.4.11-.19.07c-.07,0-.07,0-.11.06a1.52,1.52,0,0,0-.4.59,8.09,8.09,0,0,0-.51,1.6A29.58,29.58,0,0,0,.23,68,2,2,0,0,0,.71,69.5a2.14,2.14,0,0,0,1.51.71,2.14,2.14,0,0,1-1.59-.64A2.18,2.18,0,0,1,0,67.94a33.7,33.7,0,0,1,.35-3.47,9.72,9.72,0,0,1,.43-1.73,2.18,2.18,0,0,1,.53-.85,1.35,1.35,0,0,1,.27-.16l.21-.09.42-.15a27.11,27.11,0,0,1,3.43-.81L5.28,61a52,52,0,0,1,4.1-12.52,33.47,33.47,0,0,1,3.44-5.73A20.6,20.6,0,0,1,17.71,38a16.12,16.12,0,0,1,3.13-1.58c.53-.19,1.07-.34,1.6-.51s1.07-.35,1.61-.47c2.14-.57,4.29-1,6.45-1.45,4.3-.85,8.62-1.48,13-2.07s8.65-1.12,13-1.62l6.48-.74c2.16-.24,4.34-.47,6.44-.74l.78-.11.6-.11a3.14,3.14,0,0,0,.62-.5c.68-.64,1.39-1.45,2.09-2.25l4.21-5a102.34,102.34,0,0,1,9.18-9.59,56.8,56.8,0,0,1,5.26-4.22c.46-.33.92-.65,1.4-1,.25-.15.46-.31.74-.46l.85-.46a12.16,12.16,0,0,1,1.7-.72,14.24,14.24,0,0,1,1.67-.56c1.11-.36,2.21-.57,3.31-.84s2.2-.45,3.3-.61,2.19-.35,3.29-.48,2.19-.29,3.28-.4c4.37-.49,8.75-.76,13.12-1s8.73-.37,13.09-.46S146.57,0,150.93,0s8.71.05,13.07.11l13.06.26,3.25.08h1.55a6,6,0,0,1,1.1.06,3.9,3.9,0,0,1,1.34.42,2.71,2.71,0,0,1,.86.78,2.14,2.14,0,0,1,.32,1.52,2,2,0,0,1-.18.61,2.6,2.6,0,0,1-.23.41,3.08,3.08,0,0,1-.24.31,2.89,2.89,0,0,1-.24.25A7.33,7.33,0,0,1,182.87,6a23.83,23.83,0,0,1-3.25,1.32l.65-2.46c1.07,1.27,2,2.51,2.95,3.81s1.83,2.62,2.69,3.95a78,78,0,0,1,4.63,8.34,64,64,0,0,1,3.51,8.88l.66,2.3c.21.77.36,1.56.54,2.33l.26,1.17c.08.39.12.79.19,1.19l.33,2.37-.77-.81a6.65,6.65,0,0,1,1.26.42,6.88,6.88,0,0,1,1.13.62,5.45,5.45,0,0,1,1.78,2,5.19,5.19,0,0,1,.44,1.25l.12.6.09.57c.11.76.2,1.5.29,2.25.35,3,.64,6,.9,9s.52,6,.74,9l.16,2.25c0,.37.06.74.06,1.13a2.32,2.32,0,0,1-.26,1.16,3,3,0,0,1-1.82,1.37A7,7,0,0,1,197.92,70.21Z"/><path class="cls-1" d="M11.24,70.21,20,69.9l8.73-.25-.54.44a28.21,28.21,0,0,1,3.08-7.79,25.16,25.16,0,0,1,5.35-6.52A22.76,22.76,0,0,1,44,51.53a26.74,26.74,0,0,1,8.4-1.43,27.3,27.3,0,0,1,8.48,1.16,22.82,22.82,0,0,1,7.63,4.09,25.62,25.62,0,0,1,5.65,6.55,29.47,29.47,0,0,1,2,3.83c.29.66.55,1.33.78,2a21,21,0,0,1,.63,2.14L76,68.63c9.92-.08,19.84-.06,29.76-.1,5,0,9.92,0,14.88,0l14.88,0-1.59,1.3a19.55,19.55,0,0,1,.62-2.15c.23-.69.5-1.36.78-2a29.08,29.08,0,0,1,2-3.84A25.66,25.66,0,0,1,143,55.32a22.64,22.64,0,0,1,7.64-4.11,27.08,27.08,0,0,1,8.5-1.14,26.57,26.57,0,0,1,8.41,1.43,23,23,0,0,1,7.37,4.27,25,25,0,0,1,5.33,6.54A29.77,29.77,0,0,1,182,66.09a23.58,23.58,0,0,1,1.23,4l-.49-.39,6.77.22,6.76.28-6.76.27-6.77.23h-.37l-.12-.41a26.36,26.36,0,0,0-8.58-13.09,21,21,0,0,0-6.88-3.6,25.4,25.4,0,0,0-7.71-1,24.53,24.53,0,0,0-7.64,1.27,20.44,20.44,0,0,0-6.61,3.75A22.52,22.52,0,0,0,140,63.48a26.47,26.47,0,0,0-1.71,3.46c-.25.6-.47,1.2-.66,1.81s-.39,1.26-.51,1.78l-.28,1.3h-1.31l-14.88,0c-5,0-9.92,0-14.88,0-9.92,0-19.84,0-29.76-.11H74.7l-.27-1.25c-.11-.53-.3-1.19-.49-1.79s-.42-1.21-.67-1.81a26,26,0,0,0-1.72-3.47,22.77,22.77,0,0,0-4.89-5.89A20.56,20.56,0,0,0,60,53.8a24.58,24.58,0,0,0-7.65-1.26,25.75,25.75,0,0,0-7.72,1.05,20.89,20.89,0,0,0-6.87,3.62,26.21,26.21,0,0,0-8.53,13.11l-.13.46-.42,0L20,70.51Z"/><path class="cls-1" d="M36.61,73.87a10.06,10.06,0,0,1,.27-2.78c.1-.46.25-.9.38-1.36s.34-.88.54-1.32a12.77,12.77,0,0,1,3.45-4.55A10,10,0,0,1,42.41,63a8.54,8.54,0,0,1,1.23-.74l1.3-.62c.45-.16.91-.29,1.36-.42L47,61l.69-.12,1.4-.19a21.62,21.62,0,0,1,2.79.07c-.89.3-1.78.47-2.63.75L48,62l-.63.21-.59.28-1.2.54c-.37.23-.74.44-1.12.66a7.64,7.64,0,0,0-1.07.71,7.82,7.82,0,0,0-1,.79c-.32.29-.66.55-1,.86l-.88.94-.81,1L39,69c-.24.37-.44.76-.68,1.13s-.42.78-.61,1.19A22.44,22.44,0,0,0,36.61,73.87Z"/><path class="cls-1" d="M144,74a10.42,10.42,0,0,1,.27-2.78c.1-.46.26-.91.38-1.36s.35-.89.54-1.32A12.8,12.8,0,0,1,148.63,64a9,9,0,0,1,1.16-.87,8.54,8.54,0,0,1,1.23-.74l1.3-.62c.45-.16.91-.29,1.37-.42l.68-.2a5.38,5.38,0,0,1,.7-.12l1.39-.19a21.58,21.58,0,0,1,2.79.06c-.89.31-1.78.48-2.63.76l-1.27.44c-.2.08-.42.13-.62.21l-.6.28-1.19.54-1.13.66a8.27,8.27,0,0,0-1.07.71,7,7,0,0,0-1,.79c-.32.29-.66.55-1,.86l-.88.94c-.27.34-.53.68-.81,1l-.75,1.07c-.24.37-.44.76-.68,1.13s-.42.78-.61,1.19A22.44,22.44,0,0,0,144,74Z"/><path class="cls-1" d="M10,59.22s2.63-8.84,4.88-10.9,10-1.69,10-1.69S23,53.18,20.92,56.1,10,59.22,10,59.22Z"/><path class="cls-1" d="M196.28,50.2h-7c-2.45,0-.76,10.69,1.31,10.69h6.58Z"/><path class="cls-1" d="M53.8,46.6A28.43,28.43,0,0,1,79.92,64.48h50.92s6.57-17.16,23.3-17.88a26.55,26.55,0,0,0-25.93,12.62H83.68A32.31,32.31,0,0,0,53.8,46.6Z"/></g></g></svg>