<svg xmlns="http://www.w3.org/2000/svg" viewBox="0 0 405.92 139.72"><defs><style>.cls-1{fill:#b70842;}</style></defs><title>logo-1</title><g id="Layer_2" data-name="Layer 2"><g id="Layer_1-2" data-name="Layer 1"><path d="M25.91,129.07a6.61,6.61,0,0,0-2.39-5.39q-2.4-2-8.76-3.78T5.46,116a9.47,9.47,0,0,1-.29-15.48,15.91,15.91,0,0,1,9.9-2.94,16.46,16.46,0,0,1,7.31,1.58,11.91,11.91,0,0,1,5,4.39,11.56,11.56,0,0,1,1.77,6.28H25.66a8.62,8.62,0,0,0-2.87-6.76,11.17,11.17,0,0,0-7.72-2.56,12.15,12.15,0,0,0-7.49,2.1,6.56,6.56,0,0,0-2.79,5.49,6.18,6.18,0,0,0,2.5,5.1,23.33,23.33,0,0,0,8,3.49,37.53,37.53,0,0,1,8.37,3.13A12,12,0,0,1,28,123.69,9.67,9.67,0,0,1,29.41,129a9.28,9.28,0,0,1-3.88,7.78q-3.87,2.93-10.21,2.93a20,20,0,0,1-7.95-1.55,12.19,12.19,0,0,1-5.5-4.34A11.18,11.18,0,0,1,0,127.44H3.46a8.18,8.18,0,0,0,3.24,6.84,13.74,13.74,0,0,0,8.62,2.51A12.76,12.76,0,0,0,23,134.67,6.57,6.57,0,0,0,25.91,129.07Z"/><path d="M40.31,98.14l15.12,36.2,15.19-36.2h4.61v41H71.77V121.3L72.05,103,56.79,139.15H54.11l-15.21-36,.28,18.05v18H35.72v-41Z"/><path d="M107.12,127.63H88.5l-4.22,11.52H80.64l15.52-41h3.3l15.52,41h-3.61ZM89.57,124.7H106L97.8,102.37Z"/><path d="M135.17,122.06H123.26v17.09h-3.49v-41h13.32q6.57,0,10.25,3.18t3.69,8.89a11.1,11.1,0,0,1-2.31,7,11.8,11.8,0,0,1-6.19,4.17l10.25,17.46v.36h-3.69Zm-11.91-2.93h10.62a9.8,9.8,0,0,0,7-2.49,9.37,9.37,0,0,0-.11-13.17q-2.76-2.4-7.75-2.4h-9.77Z"/><path d="M180.89,101.07H166.83v38.08h-3.46V101.07h-14V98.14h31.55Z"/><path d="M228,105.78H215.68v33.37h-9.89V105.78H193.71V98.14H228Z"/><path d="M246.24,124.65h-5.35v14.5H231v-41h16.14q7.29,0,11.41,3.24a11,11,0,0,1,4.11,9.14,13.35,13.35,0,0,1-1.73,7.09,12.27,12.27,0,0,1-5.42,4.56l8.56,16.56v.42H253.48ZM240.89,117h6.25a5.61,5.61,0,0,0,4.24-1.48,5.73,5.73,0,0,0,1.42-4.14,5.82,5.82,0,0,0-1.43-4.16,5.56,5.56,0,0,0-4.23-1.51h-6.25Z"/><path d="M290.77,131.49H277.22l-2.36,7.66H264.3l15-41h9.29l15.16,41H293.17Zm-11.18-7.63h8.82L284,109.63Z"/><path d="M338.21,125.27a15.15,15.15,0,0,1-2.31,7.56,13.94,13.94,0,0,1-5.93,5.08,20.08,20.08,0,0,1-8.72,1.81q-8.08,0-12.73-5.27t-4.65-14.87v-2A24.8,24.8,0,0,1,306,107a15.89,15.89,0,0,1,6-7,16.8,16.8,0,0,1,9.13-2.47q7.46,0,12,3.93a15.52,15.52,0,0,1,5.15,10.83h-9.86q-.1-3.75-1.89-5.38t-5.4-1.63a5.9,5.9,0,0,0-5.41,2.76q-1.73,2.76-1.8,8.81v2.9q0,6.57,1.64,9.38t5.68,2.82a7.59,7.59,0,0,0,5.21-1.6c1.2-1.08,1.84-2.77,1.92-5.1Z"/><path d="M367.16,121.75H351.61v9.8H370v7.6H341.73v-41H370v7.64H351.61v8.64h15.55Z"/><path d="M388.09,124.65h-5.35v14.5h-9.89v-41H389q7.31,0,11.41,3.24a11,11,0,0,1,4.11,9.14,13.26,13.26,0,0,1-1.73,7.09,12.22,12.22,0,0,1-5.42,4.56l8.56,16.56v.42H395.33ZM382.74,117H389a5.61,5.61,0,0,0,4.24-1.48,6.72,6.72,0,0,0,0-8.3,5.56,5.56,0,0,0-4.23-1.51h-6.25Z"/><path class="cls-1" d="M312.89,80.52a7.89,7.89,0,0,0,2.51-.5,3.25,3.25,0,0,0,1.84-1.56,4.47,4.47,0,0,0,0-2.44l-.34-2.56-1.4-10.22c-.49-3.4-1-6.8-1.51-10.18-.15-.85-.28-1.7-.45-2.52l-.12-.62-.14-.57a3.72,3.72,0,0,0-.39-1,4.25,4.25,0,0,0-1.46-1.46,6,6,0,0,0-1-.49,6.88,6.88,0,0,0-1-.29l-.74-.12-.14-.81A62,62,0,0,0,306,35a73.39,73.39,0,0,0-4.21-9.68,97.87,97.87,0,0,0-5.41-9.08c-1-1.46-2-2.9-3.08-4.3s-2.18-2.79-3.3-4l-1.71-1.94,2.45-.89A22.52,22.52,0,0,0,294,3.69a5.21,5.21,0,0,0,1.11-.77l.05,0s0,0,0,0a.72.72,0,0,0,0,.07,1.15,1.15,0,0,0-.07.25,1.21,1.21,0,0,0,.19.85.89.89,0,0,0,.28.29s-.09,0-.25,0a2.94,2.94,0,0,0-.6,0l-.48,0h-1.49l-3.75,0-15-.07c-5,0-10,0-14.94.09s-9.95.13-14.92.26c-9.94.28-19.87.74-29.69,1.75-1.22.12-2.44.27-3.66.43s-2.43.33-3.63.52-2.39.42-3.59.64-2.35.5-3.45.86a13.67,13.67,0,0,0-1.64.53,9.67,9.67,0,0,0-1.49.63l-.68.34c-.23.12-.49.31-.74.47-.5.31-1,.65-1.48,1a60.56,60.56,0,0,0-5.65,4.5,124.44,124.44,0,0,0-10.28,10.5l-4.93,5.64c-.86,1-1.7,1.89-2.74,2.85l-.42.37-.49.37a6.48,6.48,0,0,1-.61.39,4,4,0,0,1-.46.2l-.25.09-.15,0-1.16.21L166,37c-5,.57-10,1-14.95,1.43s-9.91.93-14.85,1.48-9.88,1.15-14.77,1.92c-2.44.4-4.87.83-7.25,1.37-.61.12-1.19.29-1.77.45s-1.17.31-1.74.49a15.87,15.87,0,0,0-3.13,1.46,21.84,21.84,0,0,0-5.28,4.72,37.35,37.35,0,0,0-4,6.07,58,58,0,0,0-3,6.72,61.51,61.51,0,0,0-2.24,7.06l-.08.34-.33,0a31.26,31.26,0,0,0-3.84.71l-.46.13-.22.08c-.08,0-.08.05-.13.06a1.92,1.92,0,0,0-.46.68A10.85,10.85,0,0,0,86.82,74a36.46,36.46,0,0,0-.65,3.9,2.3,2.3,0,0,0,.56,1.77,2.39,2.39,0,0,0,1.72.82,2.48,2.48,0,0,1-2.53-2.61,35.76,35.76,0,0,1,.4-4,10.23,10.23,0,0,1,.49-2,2.49,2.49,0,0,1,.61-1,2.63,2.63,0,0,1,.3-.18L88,70.7c.16-.07.32-.12.48-.18a31.62,31.62,0,0,1,3.93-.94L92,70a59.8,59.8,0,0,1,4.7-14.36A39.29,39.29,0,0,1,100.61,49a23.23,23.23,0,0,1,5.62-5.43,18,18,0,0,1,3.58-1.82c.62-.22,1.22-.39,1.84-.59s1.23-.4,1.84-.54c2.46-.65,4.93-1.17,7.4-1.66,4.93-1,9.89-1.7,14.85-2.38s9.92-1.28,14.89-1.85l7.43-.85c2.48-.27,5-.53,7.38-.85l.9-.12.69-.13a3.72,3.72,0,0,0,.71-.57c.78-.74,1.59-1.66,2.39-2.58L175,24a117.16,117.16,0,0,1,10.52-11,64.49,64.49,0,0,1,6-4.84c.53-.37,1.06-.75,1.62-1.1.28-.18.52-.36.84-.53L195,6a14.59,14.59,0,0,1,1.94-.84,18.68,18.68,0,0,1,1.92-.63c1.27-.41,2.53-.66,3.8-1s2.52-.51,3.78-.69,2.51-.41,3.77-.56,2.51-.33,3.76-.46c5-.56,10-.87,15-1.13s10-.42,15-.53S254,0,259,0s10,.06,15,.13l15,.3,3.73.09h1.77a6.92,6.92,0,0,1,1.27.06,4.46,4.46,0,0,1,1.53.49,2.86,2.86,0,0,1,1,.9,2.49,2.49,0,0,1,.17,2.43,3,3,0,0,1-.27.48,3.93,3.93,0,0,1-.27.35c-.09.11-.19.21-.27.29a8.53,8.53,0,0,1-2,1.33,27.51,27.51,0,0,1-3.73,1.51l.74-2.82C293.88,7,295,8.43,296,9.92s2.09,3,3.08,4.53A90.09,90.09,0,0,1,304.43,24a74.38,74.38,0,0,1,4,10.19l.77,2.64c.24.88.41,1.78.61,2.67l.3,1.34c.09.45.14.91.21,1.36l.39,2.72-.88-.92a7.85,7.85,0,0,1,1.44.47,8.73,8.73,0,0,1,1.3.72,6.24,6.24,0,0,1,2,2.26,6.13,6.13,0,0,1,.51,1.43l.14.69.09.65c.14.87.24,1.73.34,2.59.41,3.43.74,6.85,1,10.28s.59,6.86.85,10.3l.18,2.57c0,.43.06.86.07,1.3a2.65,2.65,0,0,1-.3,1.33,3.39,3.39,0,0,1-2.09,1.57A8,8,0,0,1,312.89,80.52Z"/><path class="cls-1" d="M98.8,80.52l10-.35,10-.29-.62.5a32,32,0,0,1,3.54-8.93A28.74,28.74,0,0,1,127.88,64a26.25,26.25,0,0,1,8.47-4.88A30.47,30.47,0,0,1,146,57.46a31.36,31.36,0,0,1,9.73,1.33,26.11,26.11,0,0,1,8.75,4.69A29.39,29.39,0,0,1,170.93,71a33.15,33.15,0,0,1,2.27,4.39c.33.76.62,1.53.89,2.31a21.71,21.71,0,0,1,.72,2.46L173,78.71c11.38-.1,22.75-.08,34.13-.12,5.69,0,11.38,0,17.06,0l17.07,0-1.83,1.49a24.24,24.24,0,0,1,.71-2.47c.27-.79.57-1.56.9-2.32a34.62,34.62,0,0,1,2.28-4.4,29.64,29.64,0,0,1,6.49-7.51,25.88,25.88,0,0,1,8.77-4.71,31.41,31.41,0,0,1,9.74-1.31A30.49,30.49,0,0,1,278,59.06a26.33,26.33,0,0,1,8.46,4.9,28.75,28.75,0,0,1,6.11,7.5,35.83,35.83,0,0,1,2.08,4.33,28.61,28.61,0,0,1,1.41,4.61l-.56-.46,7.76.26,7.75.32-7.75.31-7.76.26-.43,0-.13-.47a30.26,30.26,0,0,0-9.85-15,24,24,0,0,0-7.89-4.13,29.25,29.25,0,0,0-8.84-1.19,28.33,28.33,0,0,0-8.76,1.46A23.61,23.61,0,0,0,252,66.05a26.06,26.06,0,0,0-5.6,6.75,30.48,30.48,0,0,0-2,4c-.28.68-.53,1.38-.76,2.08s-.44,1.44-.58,2l-.32,1.48h-1.5l-17.07,0c-5.68,0-11.37,0-17.06,0-11.38,0-22.75,0-34.13-.12h-1.46l-.31-1.43c-.13-.61-.34-1.37-.56-2s-.49-1.4-.77-2.09a30.54,30.54,0,0,0-2-4A26.52,26.52,0,0,0,162.36,66a23.57,23.57,0,0,0-7.6-4.31A28.13,28.13,0,0,0,146,60.26a29.35,29.35,0,0,0-8.86,1.2,24,24,0,0,0-7.88,4.15,30.13,30.13,0,0,0-9.78,15l-.15.52-.48,0-10-.29Z"/><path class="cls-1" d="M127.89,84.72a11.85,11.85,0,0,1,.32-3.19c.11-.53.29-1,.44-1.56s.39-1,.61-1.51a14.67,14.67,0,0,1,4-5.22,10,10,0,0,1,1.33-1,9.6,9.6,0,0,1,1.41-.85l1.49-.71c.52-.18,1-.33,1.57-.48l.78-.23c.26-.06.53-.1.8-.14l1.6-.21a22.73,22.73,0,0,1,3.2.07c-1,.35-2,.55-3,.86l-1.45.51c-.24.09-.49.15-.72.24l-.69.32-1.36.62q-.65.39-1.29.75a9.39,9.39,0,0,0-1.23.82,8.62,8.62,0,0,0-1.16.91c-.37.33-.76.63-1.1,1l-1,1.07c-.31.39-.61.78-.93,1.17l-.86,1.23c-.27.42-.5.87-.78,1.3s-.48.89-.7,1.36A28.56,28.56,0,0,0,127.89,84.72Z"/><path class="cls-1" d="M251,84.86a11.93,11.93,0,0,1,.32-3.19c.11-.52.29-1,.43-1.56s.4-1,.62-1.51a14.61,14.61,0,0,1,4-5.21,9.75,9.75,0,0,1,1.32-1,9.36,9.36,0,0,1,1.42-.85l1.49-.71c.51-.18,1-.33,1.56-.49l.78-.23c.27-.06.54-.09.81-.13l1.6-.22a26,26,0,0,1,3.19.07c-1,.36-2,.55-3,.87l-1.44.51c-.24.09-.49.15-.72.24l-.69.32-1.37.62c-.42.26-.86.5-1.28.75a8.49,8.49,0,0,0-1.23.82,9.32,9.32,0,0,0-1.17.9c-.36.34-.75.64-1.09,1l-1,1.08c-.3.39-.61.78-.92,1.16l-.86,1.24c-.27.42-.5.86-.78,1.29s-.49.9-.7,1.36A28.56,28.56,0,0,0,251,84.86Z"/><path class="cls-1" d="M97.4,67.91s3-10.13,5.6-12.5,11.43-1.94,11.43-1.94S112.27,61,109.9,64.34,97.4,67.91,97.4,67.91Z"/><path class="cls-1" d="M311,57.57h-8c-2.8,0-.86,12.26,1.51,12.26H312Z"/><path class="cls-1" d="M147.61,53.44a32.61,32.61,0,0,1,29.95,20.5H236s7.54-19.68,26.72-20.5a30.46,30.46,0,0,0-29.74,14.47H181.87A37,37,0,0,0,147.61,53.44Z"/></g></g></svg>