<svg xmlns="http://www.w3.org/2000/svg" viewBox="0 0 405.89 140.24"><defs><style>.cls-1{fill:#b70842;}</style></defs><title>logo-5</title><g id="Layer_2" data-name="Layer 2"><g id="Layer_1-2" data-name="Layer 1"><path class="cls-1" d="M26.5,129.36a6.8,6.8,0,0,0-2.45-5.52q-2.44-2-9-3.86t-9.5-4a9.67,9.67,0,0,1-.3-15.82,16.21,16.21,0,0,1,10.12-3,16.86,16.86,0,0,1,7.47,1.61A12.24,12.24,0,0,1,28,103.26a11.81,11.81,0,0,1,1.82,6.43H26.24a8.81,8.81,0,0,0-2.94-6.92,11.46,11.46,0,0,0-7.89-2.62,12.44,12.44,0,0,0-7.66,2.15,6.72,6.72,0,0,0-2.85,5.61,6.32,6.32,0,0,0,2.56,5.22c1.71,1.35,4.44,2.54,8.21,3.57a38.37,38.37,0,0,1,8.55,3.2,12.13,12.13,0,0,1,4.38,4,10.52,10.52,0,0,1,1.4,6.82,8.61,8.61,0,0,1-2.14,5q-4.16,4.61-12.19,4.6a20.59,20.59,0,0,1-8.14-1.58,12.4,12.4,0,0,1-5.61-4.44A11.42,11.42,0,0,1,0,127.69H3.54a8.37,8.37,0,0,0,3.31,7,14,14,0,0,0,8.82,2.57,13.07,13.07,0,0,0,7.86-2.16A6.75,6.75,0,0,0,26.5,129.36Z"/><path class="cls-1" d="M40.64,97.69l15.12,36.65L71,97.69h3.94v41h-3V103l-14.77,35.7H54.44L38.89,103.13v35.56h-3v-41Z"/><path class="cls-1" d="M107.84,127.69H88.44l-4.4,12H80.56l15.89-42h3.38l15.89,42h-3.45Zm-17.94-3h16.45l-8.22-22.34Z"/><path class="cls-1" d="M135,121.69H122.89v17h-3v-41H133.2q6.57,0,10.25,3.18c2.46,2.11,3.69,5.08,3.69,8.88a11.1,11.1,0,0,1-2.31,7,11.78,11.78,0,0,1-6.19,4.16l10.25,17.46v.37h-3.76Zm-11.14-3h10.58a9.79,9.79,0,0,0,7-2.48,9.32,9.32,0,0,0-.11-13.13c-1.83-1.6-4.41-2.39-7.72-2.39h-9.74Z"/><path class="cls-1" d="M181.89,100.69h-15v38h-3v-38h-14v-3h32Z"/><path class="cls-1" d="M227.89,105.69h-12v33h-10v-33h-12v-8h34Z"/><path class="cls-1" d="M246.2,124.69h-5.31v15h-10v-42H247q7.29,0,11.39,3.31t4.1,9.36a14,14,0,0,1-1.73,7.27,12.38,12.38,0,0,1-5.41,4.67l8.55,17v.44H253.38Zm-5.31-8H247a5.41,5.41,0,0,0,4.12-1.45,5.54,5.54,0,0,0,1.39-4,5.65,5.65,0,0,0-1.4-4,5.4,5.4,0,0,0-4.11-1.47h-6.09Z"/><path class="cls-1" d="M291.4,131.69H277.25l-2.47,8H264.15l15.4-42h9.52l15.52,42H293.9Zm-11.48-8h8.82l-4.43-14.23Z"/><path class="cls-1" d="M338,125.69a15,15,0,0,1-2.3,7.58,13.8,13.8,0,0,1-5.89,5.1,19.86,19.86,0,0,1-8.67,1.81q-8,0-12.66-5.28T303.89,120v-2A25.09,25.09,0,0,1,306,107.36a16,16,0,0,1,6-7,16.66,16.66,0,0,1,9.08-2.47q7.43,0,11.93,3.94a15.62,15.62,0,0,1,5.13,10.87h-9.81q-.1-3.76-1.88-5.4t-5.37-1.64a5.85,5.85,0,0,0-5.38,2.77c-1.14,1.85-1.74,4.79-1.79,8.84v2.91c0,4.4.54,7.53,1.63,9.42s3,2.82,5.65,2.82a7.51,7.51,0,0,0,5.18-1.61c1.2-1.07,1.83-2.78,1.91-5.11Z"/><path class="cls-1" d="M367.89,121.69h-16v10h18v7h-28v-41h28v8h-18v9h16Z"/><path class="cls-1" d="M388.2,124.69h-5.31v15h-10v-42H389q7.29,0,11.39,3.31t4.1,9.36a14,14,0,0,1-1.73,7.27,12.38,12.38,0,0,1-5.41,4.67l8.55,17v.44H395.38Zm-5.31-8H389a5.41,5.41,0,0,0,4.12-1.45,5.54,5.54,0,0,0,1.39-4,5.65,5.65,0,0,0-1.4-4,5.4,5.4,0,0,0-4.11-1.47h-6.09Z"/><path class="cls-1" d="M313.22,80.52a7.89,7.89,0,0,0,2.51-.5,3.3,3.3,0,0,0,1.85-1.56,4.58,4.58,0,0,0,0-2.44l-.34-2.56-1.4-10.22c-.49-3.4-1-6.8-1.51-10.18-.15-.85-.28-1.7-.45-2.52l-.12-.62-.14-.57a3.72,3.72,0,0,0-.39-1,4.25,4.25,0,0,0-1.46-1.46,6,6,0,0,0-1-.49,6.88,6.88,0,0,0-1-.29l-.74-.12-.14-.81A62,62,0,0,0,306.36,35a73.39,73.39,0,0,0-4.21-9.68,97.87,97.87,0,0,0-5.41-9.08c-1-1.46-2-2.9-3.08-4.3s-2.18-2.79-3.3-4l-1.7-1.94,2.44-.89a22.52,22.52,0,0,0,3.18-1.36,5.21,5.21,0,0,0,1.11-.77.23.23,0,0,0,.05,0s0,0,0,0a.72.72,0,0,0,0,.07,1.15,1.15,0,0,0-.07.25,1.21,1.21,0,0,0,.19.85.89.89,0,0,0,.28.29c.05,0-.09,0-.25,0a2.94,2.94,0,0,0-.6,0l-.48,0H293l-3.75,0-14.95-.07c-5,0-10,0-14.94.09s-10,.13-14.92.26c-9.93.28-19.87.74-29.68,1.75-1.23.12-2.45.27-3.67.43s-2.43.33-3.63.52-2.39.42-3.59.64-2.35.5-3.45.86a13,13,0,0,0-1.63.53,9.39,9.39,0,0,0-1.5.63l-.68.34c-.23.12-.49.31-.74.47-.5.31-1,.65-1.48,1a60.56,60.56,0,0,0-5.65,4.5,124.44,124.44,0,0,0-10.28,10.5l-4.93,5.64c-.86,1-1.7,1.89-2.74,2.85l-.42.37c-.14.12-.32.25-.48.37s-.42.27-.62.39a4,4,0,0,1-.46.2l-.25.09-.15,0-1.16.21-1,.11c-5.06.57-10,1-15,1.43s-9.91.93-14.85,1.48-9.88,1.15-14.76,1.92c-2.45.4-4.88.83-7.26,1.37-.61.12-1.19.29-1.77.45s-1.17.31-1.74.49a15.87,15.87,0,0,0-3.13,1.46,21.84,21.84,0,0,0-5.28,4.72,37.35,37.35,0,0,0-4,6.07,58,58,0,0,0-3,6.72,61.51,61.51,0,0,0-2.24,7.06l-.08.34-.33,0a31.26,31.26,0,0,0-3.84.71l-.46.13-.22.08c-.08,0-.08.05-.13.06a1.92,1.92,0,0,0-.46.68A10.85,10.85,0,0,0,87.15,74a36.46,36.46,0,0,0-.65,3.9,2.3,2.3,0,0,0,.56,1.77,2.39,2.39,0,0,0,1.72.82,2.48,2.48,0,0,1-2.53-2.61,35.76,35.76,0,0,1,.4-4,10.23,10.23,0,0,1,.49-2,2.49,2.49,0,0,1,.61-1c.1-.06.23-.15.3-.18l.25-.09c.16-.07.32-.12.48-.18a31.62,31.62,0,0,1,3.93-.94L92.3,70A59.8,59.8,0,0,1,97,55.61,39.29,39.29,0,0,1,100.94,49a23.41,23.41,0,0,1,5.62-5.43,18,18,0,0,1,3.58-1.82c.62-.22,1.23-.39,1.84-.59s1.23-.4,1.84-.54c2.46-.65,4.93-1.17,7.4-1.66,4.93-1,9.89-1.7,14.85-2.38S146,35.34,151,34.77l7.44-.85c2.47-.27,5-.53,7.37-.85l.9-.12.69-.13a3.72,3.72,0,0,0,.71-.57c.78-.74,1.59-1.66,2.39-2.58L175.3,24a117.16,117.16,0,0,1,10.52-11,64.49,64.49,0,0,1,6-4.84c.53-.37,1.06-.75,1.62-1.1.28-.18.52-.36.84-.53l1-.52a14.59,14.59,0,0,1,1.94-.84,18.68,18.68,0,0,1,1.92-.63c1.27-.41,2.53-.66,3.8-1s2.52-.51,3.78-.69,2.51-.41,3.77-.56S213,2,214.26,1.83c5-.56,10-.87,15-1.13s10-.42,15-.53,10-.17,15-.17,10,.06,15,.13l15,.3L293,.52h1.77a6.92,6.92,0,0,1,1.27.06,4.46,4.46,0,0,1,1.53.49,2.86,2.86,0,0,1,1,.9A2.42,2.42,0,0,1,299,3.72a2.83,2.83,0,0,1-.2.69,4.08,4.08,0,0,1-.28.48,2.66,2.66,0,0,1-.27.35c-.09.11-.19.21-.27.29a8.53,8.53,0,0,1-2,1.33,27.51,27.51,0,0,1-3.73,1.51L293,5.55c1.23,1.46,2.32,2.88,3.39,4.37s2.09,3,3.08,4.53A90.09,90.09,0,0,1,304.76,24a74.38,74.38,0,0,1,4,10.19l.77,2.64c.24.88.41,1.78.61,2.67l.3,1.34c.09.45.14.91.21,1.36l.39,2.72-.88-.92a7.85,7.85,0,0,1,1.44.47,8.73,8.73,0,0,1,1.3.72,6.15,6.15,0,0,1,2,2.26,5.71,5.71,0,0,1,.51,1.43l.14.69.1.65c.13.87.23,1.73.33,2.59.41,3.43.74,6.85,1,10.28s.59,6.86.85,10.3L318.1,76c0,.43.06.86.07,1.3a2.65,2.65,0,0,1-.3,1.33,3.39,3.39,0,0,1-2.09,1.57A8,8,0,0,1,313.22,80.52Z"/><path class="cls-1" d="M99.13,80.52l10-.35,10-.29-.62.5a32,32,0,0,1,3.54-8.93A28.74,28.74,0,0,1,128.21,64a26.25,26.25,0,0,1,8.47-4.88,30.47,30.47,0,0,1,9.63-1.63A31.36,31.36,0,0,1,156,58.79a26.11,26.11,0,0,1,8.75,4.69A29.39,29.39,0,0,1,171.26,71a33.15,33.15,0,0,1,2.27,4.39c.33.76.62,1.53.89,2.31a21.71,21.71,0,0,1,.72,2.46l-1.77-1.44c11.38-.1,22.75-.08,34.13-.12,5.69,0,11.38,0,17.07,0l17.06,0-1.83,1.49a24.24,24.24,0,0,1,.71-2.47c.27-.79.57-1.56.9-2.32a34.62,34.62,0,0,1,2.28-4.4,29.64,29.64,0,0,1,6.49-7.51A26,26,0,0,1,259,58.73a31.41,31.41,0,0,1,9.74-1.31,30.6,30.6,0,0,1,9.65,1.64,26.39,26.39,0,0,1,8.45,4.9,28.55,28.55,0,0,1,6.11,7.5A35.83,35.83,0,0,1,295,75.79a28.61,28.61,0,0,1,1.41,4.61l-.56-.46,7.76.26,7.75.32-7.75.31-7.76.26-.43,0-.13-.47a30.26,30.26,0,0,0-9.85-15,24,24,0,0,0-7.89-4.13,29.25,29.25,0,0,0-8.84-1.19,28.33,28.33,0,0,0-8.76,1.46,23.61,23.61,0,0,0-7.58,4.29,26.06,26.06,0,0,0-5.6,6.75,30.48,30.48,0,0,0-2,4c-.28.68-.53,1.38-.76,2.08s-.44,1.44-.58,2l-.32,1.48h-1.5l-17.06,0c-5.69,0-11.38,0-17.07,0-11.38,0-22.75,0-34.13-.12h-1.46l-.31-1.43c-.13-.61-.34-1.37-.56-2s-.49-1.4-.77-2.09a30.54,30.54,0,0,0-2-4A26.52,26.52,0,0,0,162.69,66a23.57,23.57,0,0,0-7.6-4.31,28.13,28.13,0,0,0-8.77-1.44,29.35,29.35,0,0,0-8.86,1.2,24,24,0,0,0-7.88,4.15,30.13,30.13,0,0,0-9.78,15l-.15.52-.48,0-10-.29Z"/><path class="cls-1" d="M128.22,84.72a11.85,11.85,0,0,1,.32-3.19c.11-.53.29-1,.44-1.56s.39-1,.61-1.51a14.67,14.67,0,0,1,4-5.22,10,10,0,0,1,1.33-1,9.6,9.6,0,0,1,1.41-.85l1.49-.71c.52-.18,1-.33,1.57-.48l.78-.23c.26-.06.53-.1.8-.14l1.6-.21a22.73,22.73,0,0,1,3.2.07c-1,.35-2,.55-3,.86l-1.45.51c-.24.09-.49.15-.72.24l-.69.32-1.36.62q-.65.39-1.29.75a9.39,9.39,0,0,0-1.23.82,8.62,8.62,0,0,0-1.16.91c-.36.33-.76.63-1.1,1l-1,1.07c-.31.39-.61.78-.93,1.17l-.86,1.23c-.27.42-.5.87-.78,1.3s-.48.89-.7,1.36A28.56,28.56,0,0,0,128.22,84.72Z"/><path class="cls-1" d="M251.37,84.86a11.93,11.93,0,0,1,.32-3.19c.11-.52.29-1,.43-1.56s.4-1,.62-1.51a14.61,14.61,0,0,1,4-5.21,9.75,9.75,0,0,1,1.32-1,9.36,9.36,0,0,1,1.42-.85l1.49-.71c.51-.18,1-.33,1.56-.49l.78-.23c.27-.06.54-.09.81-.13l1.6-.22a26,26,0,0,1,3.19.07c-1,.36-2,.55-3,.87l-1.45.51c-.24.09-.49.15-.72.24l-.69.32-1.37.62c-.42.26-.86.5-1.28.75a8.49,8.49,0,0,0-1.23.82,9.32,9.32,0,0,0-1.17.9c-.36.34-.75.64-1.09,1l-1,1.08c-.3.39-.6.78-.92,1.16l-.86,1.24c-.27.42-.5.86-.78,1.29s-.49.9-.7,1.36A28.56,28.56,0,0,0,251.37,84.86Z"/><path class="cls-1" d="M97.73,67.91s3-10.13,5.61-12.5,11.42-1.94,11.42-1.94S112.6,61,110.23,64.34,97.73,67.91,97.73,67.91Z"/><path class="cls-1" d="M311.34,57.57h-8c-2.8,0-.86,12.26,1.51,12.26h7.54Z"/><path class="cls-1" d="M147.94,53.44a32.61,32.61,0,0,1,29.95,20.5h58.4s7.54-19.68,26.72-20.5a30.45,30.45,0,0,0-29.73,14.47H182.2A37,37,0,0,0,147.94,53.44Z"/></g></g></svg>